<?xml version="1.0" encoding="UTF-8"?><!-- Copyright (c) Microsoft Corporation. All rights reserved. Licensed under the MIT license. --><svg version="1.1" viewBox="0 0 388.94546 103.84568" xmlns="http://www.w3.org/2000/svg" xmlns:cc="http://creativecommons.org/ns#" xmlns:dc="http://purl.org/dc/elements/1.1/" xmlns:rdf="http://www.w3.org/1999/02/22-rdf-syntax-ns#" ><title>TSDoc</title><metadata><rdf:RDF><cc:Work rdf:about="" ><dc:format>image/svg+xml</dc:format><dc:type rdf:resource="http://purl.org/dc/dcmitype/StillImage" /><dc:title>TSDoc</dc:title><cc:license rdf:resource="https://opensource.org/licenses/MIT" /><dc:creator><cc:Agent><dc:title>https://github.com/octogonz</dc:title></cc:Agent></dc:creator><dc:rights><cc:Agent><dc:title/></cc:Agent></dc:rights><dc:description>Copyright (c) Microsoft Corporation. All rights reserved. Licensed under the MIT license.</dc:description></cc:Work></rdf:RDF></metadata><defs><style>.a{fill:#1f9448;}</style></defs><g fill="#1f9448" ><path class="a" d="m183.85266 32.69534h-17.30273v49.53906h-13.70654v-49.53906h-17.21778v-11.126h48.22705z" /><path class="a" d="m189.22571 79.90725v-13.53757a26.00153 26.00153 0 0 0 7.99561 4.63233 25.687 25.687 0 0 0 8.71435 1.54443 19.2835 19.2835 0 0 0 4.50537-0.46582 10.54882 10.54882 0 0 0 3.21533-1.29 5.641 5.641 0 0 0 1.92579-1.9458 4.86488 4.86488 0 0 0 0.63281-2.43262 5.26412 5.26412 0 0 0-1.01367-3.17285 10.95859 10.95859 0 0 0-2.77152-2.58067 29.05942 29.05942 0 0 0-4.167-2.28467q-2.41187-1.09937-5.20361-2.24219-7.10744-2.96044-10.59717-7.23389a15.79024 15.79024 0 0 1-3.49022-10.32225 16.43765 16.43765 0 0 1 1.90381-8.14356 16.16905 16.16905 0 0 1 5.18219-5.60544 23.24291 23.24291 0 0 1 7.59375-3.23633 39.01774 39.01774 0 0 1 9.1377-1.03662 54.93417 54.93417 0 0 1 8.39648 0.57129 33.04314 33.04314 0 0 1 6.748 1.75585v12.64893a20.4425 20.4425 0 0 0-3.32031-1.86133 26.43012 26.43012 0 0 0-3.70118-1.33252 28.25137 28.25137 0 0 0-3.78711-0.78271 26.77588 26.77588 0 0 0-3.57421-0.25391 18.63061 18.63061 0 0 0-4.231 0.44434 10.86 10.86 0 0 0-3.21485 1.24756 6.21486 6.21486 0 0 0-2.03076 1.92529 4.55849 4.55849 0 0 0-0.71924 2.51709 4.80874 4.80874 0 0 0 0.80372 2.72851 9.20763 9.20763 0 0 0 2.28466 2.28418 24.14757 24.14757 0 0 0 3.59571 2.11524q2.11523 1.0371 4.78125 2.13672a53.27317 53.27317 0 0 1 6.53515 3.23633 23.25454 23.25454 0 0 1 4.97071 3.8706 15.12109 15.12109 0 0 1 3.17382 4.92871 19.67646 19.67646 0 0 1-0.82617 14.97559 15.61022 15.61022 0 0 1-5.22461 5.58447 22.6217 22.6217 0 0 1-7.67773 3.06738 44.4 44.4 0 0 1-9.24365 0.93067 51.3578 51.3578 0 0 1-9.49707-0.84668 28.61831 28.61831 0 0 1-7.80513-2.53808z" /><path class="a" d="m240.58216 82.2344v-60.665h21.49121q32.32031 0 32.32031 29.5708 0 14.17236-8.82031 22.63281-8.81984 8.46168-23.5 8.46143zm13.665-49.53906v38.45459h6.76862q8.88427 0 13.93945-5.33008 5.05371-5.33057 5.05567-14.51074 0-8.67114-5.01368-13.64307-5.01269-4.97022-14.0664-4.9707z" /><path class="a" d="m323.79602 83.29202q-10.83105 0-17.02832-6.07129-6.19774-6.06958-6.19726-16.47754 0-10.74464 6.43066-16.81592 6.4292-6.07031 17.38672-6.0708 10.78712 0 16.92187 6.0708 6.1333 6.071 6.13379 16.05469 0 10.7871-6.32422 17.04834-6.32518 6.2622-17.32324 6.26172zm0.33789-35.19776a8.9147 8.9147 0 0 0-7.36035 3.25733q-2.62353 3.25781-2.623 9.22265 0 12.47974 10.06836 12.4795 9.60206 0 9.60254-12.81836-5e-5 -12.14062-9.68755-12.14112z" /><path class="a" d="m388.94544 80.66897q-4.52784 2.62207-13.07227 2.623-9.98437 0-16.16016-6.04981-6.17724-6.0498-6.17675-15.61035 0-11.042 6.62109-17.40869 6.61964-6.36621 17.7041-6.3667 7.65673 0 11.084 2.03076v11.3375a15.24135 15.24135 0 0 0-9.34961-3.13037q-5.75391 0-9.11621 3.36328-3.36329 3.36329-3.36329 9.28565 0 5.75391 3.21485 9.03223 3.21387 3.27831 8.8418 3.27832a17.64464 17.64464 0 0 0 9.77246-3.13038z" /><path class="a" d="m0 0v103.84568h103.8457v-103.84568zm89.40351 75.671-4.88282 8.49658-12.30468-8.78955 1.416 15.08838h-10.20507l1.36719-15.08838-12.25586 8.78955-4.93164-8.49658 13.7207-6.29883-13.7207-6.29882 4.93164-8.4961 12.25586 8.78906-1.36719-15.08789h10.20508l-1.416 15.08789 12.30468-8.78906 4.88282 8.4961-13.67188 6.29882z" /></g></svg>
